{"title":"Wall.Street.2.Money.Never.Sleeps.2010.R5.Line.XviD.CUSTOM(bad).S","uid":5939924,"size":1464987152,"categoryP":"video","categoryS":"movies","magnet":"?xt=urn:btih:ad04b45a2d669958bd5d07d36923cc472c3d0d7d&amp;dn=Wall.Street.2.Money.Never.Sleeps.2010.R5.Line.XviD.CUSTOM%28bad%29.S&amp;tr=udp%3A%2F%2Ftracker.openbittorrent.com%3A80&amp;tr=udp%3A%2F%2Fopen.demonii.com%3A1337&amp;tr=udp%3A%2F%2Ftracker.coppersurfer.tk%3A6969&amp;tr=udp%3A%2F%2Fexodus.desync.com%3A6969","seeders":1,"leechers":0,"uploader":"Zen_Bud","files":-1,"time":1289126194,"description":"Wall.Street.2.Money.Never.Sleeps.2010.R5.Line.XviD.CUSTOM(bad).SWESUB-Zen_Bud\n\nFormat                           : AVI\nFormat profile                   : OpenDML\nFile size                        : 1.36 GiB\nDuration                         : 2h 7mn\nOverall bit rate                 : 1 532 Kbps\nWriting application              : AVI-Mux GUI 1.17.8.3\n\nVideo\n\nFormat                           : MPEG-4 Visual\nCodec ID/Hint                    : XviD\nDuration                         : 2h 7mn\nBit rate                         : 1 416 Kbps\nWidth                            : 720 pixels\nHeight                           : 432 pixels\nDisplay aspect ratio             : 2.35:1\nStream size                      : 1.26 GiB (92%)\nWriting library                  : XviD 1.1.2 (UTC 2006-11-01)\n\nAudio\n\nFormat                           : MPEG Audio\nCodec ID/Hint                    : MP3\nDuration                         : 2h 7mn\nBit rate                         : 112 Kbps\nChannel(s)                       : 2 channels\nSampling rate                    : 48.0 KHz\nStream size                      : 102 MiB (7%)\nWriting library                  : LAME3.98\n\n\n\nText\n\nStream size                      : 121 KiB (0%)\nTitle                            : Swedish\n\n\n    *_____________________________ A: 8/10 _________________________*\n\n    *_____________________________ V: 8/10 _________________________*\n\n    *_______________________ SWESUB Translation 2/10 !! ____________*\n \n    *                                                               *\n\n\n\n----------------------------------------------------------------------------\n\nAs the global economy teeters on the brink of disaster, a young Wall Street trader partners with disgraced former Wall Street corporate raider Gordon Gekko on a two-tiered mission: To alert the financial community to the coming doom, and to find out who was responsible for the death of the young trader's mentor.\n\n----------------------------------------------------------------------------- ","torrent":{"xt":"urn:btih:ad04b45a2d669958bd5d07d36923cc472c3d0d7d","amp;dn":"Wall.Street.2.Money.Never.Sleeps.2010.R5.Line.XviD.CUSTOM%28bad%29.S","amp;tr":["udp%3A%2F%2Ftracker.openbittorrent.com%3A80","udp%3A%2F%2Fopen.demonii.com%3A1337","udp%3A%2F%2Ftracker.coppersurfer.tk%3A6969","udp%3A%2F%2Fexodus.desync.com%3A6969"],"infoHash":"ad04b45a2d669958bd5d07d36923cc472c3d0d7d","infoHashBuffer":{"type":"Buffer","data":[173,4,180,90,45,102,153,88,189,93,7,211,105,35,204,71,44,61,13,125]},"announce":[],"urlList":[]}}